#N canvas 833 282 752 300 10;
#X obj 216 151 t f f;
#X obj 198 173 f;
#X obj 198 195 t f f;
#X obj 87 217 +;
#X obj 87 261 clip 0 127;
#X obj 230 217 outlet;
#X obj 86 63 inlet value;
#X obj 213 63 inlet delta;
#X obj 213 85 s \$0-delta;
#X obj 305 62 inlet divider;
#X obj 305 85 s \$0-divider;
#X obj 411 62 inlet min;
#X obj 411 85 s \$0-min;
#X obj 489 62 inlet max;
#X obj 489 85 s \$0-max;
#X obj 216 129 r \$0-value;
#X obj 105 173 r \$0-divider;
#X obj 87 151 r \$0-delta;
#X obj 120 239 r \$0-min;
#X obj 86 85 route float list;
#X obj 86 107 s \$0-value;
#X obj 171 107 unpack f f f f;
#X obj 185 239 r \$0-max;
#X obj 87 195 / 1;
#X connect 0 0 1 1;
#X connect 0 1 3 1;
#X connect 1 0 2 0;
#X connect 2 0 3 1;
#X connect 2 1 5 0;
#X connect 3 0 4 0;
#X connect 4 0 1 0;
#X connect 6 0 19 0;
#X connect 7 0 8 0;
#X connect 9 0 10 0;
#X connect 11 0 12 0;
#X connect 13 0 14 0;
#X connect 15 0 0 0;
#X connect 16 0 23 1;
#X connect 17 0 23 0;
#X connect 18 0 4 1;
#X connect 19 0 20 0;
#X connect 19 1 21 0;
#X connect 21 0 20 0;
#X connect 21 1 10 0;
#X connect 21 2 12 0;
#X connect 21 3 14 0;
#X connect 22 0 4 2;
#X connect 23 0 3 0;
