#N canvas 598 144 819 664 10;
#X obj 158 116 mtof;
#X obj 197 116 / 127;
#X obj 158 138 osc~;
#X msg 197 138 \$1;
#X obj 158 160 *~;
#X obj 158 94 unpack;
#X obj 158 72 inlet;
#X obj 158 226 outlet~;
#X obj 158 182 >~ 0;
#X obj 195 182 <~ 0;
#X obj 195 204 *~ -1;
#X connect 0 0 2 0;
#X connect 1 0 3 0;
#X connect 2 0 4 0;
#X connect 3 0 4 1;
#X connect 4 0 8 0;
#X connect 4 0 9 0;
#X connect 5 0 0 0;
#X connect 5 1 1 0;
#X connect 6 0 5 0;
#X connect 8 0 7 0;
#X connect 9 0 10 0;
#X connect 10 0 7 0;
