#N canvas 663 251 853 619 10;
#X obj 134 67 inlet;
#X obj 134 89 unpack;
#X obj 134 111 mtof;
#X obj 133 243 *~;
#X text 146 27 mono~;
#X obj 173 111 / 127;
#X obj 133 265 outlet~;
#X obj 134 133 phasor~;
#X obj 282 221 table \$0-waveform 5;
#X obj 282 177 soundfiler;
#X msg 282 155 read -resize \$1 \$2-waveform;
#X obj 282 89 t a b;
#X obj 314 111 \$0;
#X obj 282 133 pack s f;
#X obj 282 199 s \$0-length;
#X obj 133 177 *~;
#X obj 151 155 r \$0-length;
#X obj 133 221 tabread~ \$0-waveform;
#X obj 282 67 inlet;
#X obj 326 67 inlet;
#X obj 133 199 *~;
#X connect 0 0 1 0;
#X connect 1 0 2 0;
#X connect 1 1 5 0;
#X connect 2 0 7 0;
#X connect 3 0 6 0;
#X connect 5 0 3 1;
#X connect 7 0 15 0;
#X connect 9 0 14 0;
#X connect 10 0 9 0;
#X connect 11 0 13 0;
#X connect 11 1 12 0;
#X connect 12 0 13 1;
#X connect 13 0 10 0;
#X connect 15 0 20 0;
#X connect 16 0 15 1;
#X connect 17 0 3 0;
#X connect 18 0 11 0;
#X connect 19 0 20 1;
#X connect 20 0 17 0;
