#N canvas -4 -4 1680 984 10;
#X obj 627 526 & 240;
#X obj 627 548 >> 4;
#X obj 627 614 route 8 9 10 11 12 13 14, f 182;
#X msg 1171 636 cc;
#X msg 1353 636 pc;
#X msg 990 636 pa;
#X msg 1716 636 pb;
#X msg 627 636 nf;
#X msg 808 636 nn;
#X msg 1353 394 con;
#X msg 1534 394 stp;
#X msg 1171 394 ply;
#X obj 697 526 & 15;
#X obj 627 504 t f f;
#X obj 627 460 s \$0-msg;
#X obj 627 702 s \$0-msg;
#X msg 692 438 -1;
#X obj 692 460 s \$0-ch;
#X obj 679 548 f;
#X obj 679 592 s \$0-ch;
#X obj 679 504 r \$0-chb;
#X obj 692 702 s \$0-chb;
#X obj 499 372 r \$0-msg;
#X obj 1716 394 s \$0-else;
#X obj 627 482 r \$0-else;
#X obj 20 262 moses 128, f 47;
#X obj 20 240 inlet data;
#X obj 459 284 inlet device;
#X obj 434 306 pack;
#X obj 434 328 unpack, f 28;
#X msg 990 394 clk;
#X msg 627 394 syx;
#X msg 808 394 snc;
#X obj 434 438 s \$0-list;
#X obj 148 372 list append, f 18;
#X obj 166 328 r \$0-list;
#X obj 499 394 symbol;
#X obj 434 350 swap, f 28;
#X obj 564 372 r \$0-ch;
#X obj 434 416 pack f s f, f 19;
#X obj 148 350 l;
#X obj 627 372 sel 240 241 248 250 251 252, f 156;
#X obj 808 460 s \$0-msg;
#X msg 873 438 -1;
#X obj 873 460 s \$0-ch;
#X obj 148 394 s \$0-list;
#X msg 276 350 list \$1;
#X obj 44 758 l, f 13;
#X obj 132 736 r \$0-list;
#X obj 44 736 r \$0-output;
#X obj 44 780 outlet;
#X obj 346 284 sel 247, f 13;
#X obj 346 328 t b b f;
#X obj 346 350 s \$0-output;
#X obj 627 416 t a b b, f 19;
#X obj 757 460 s \$0-l;
#X msg 757 438 1e+009;
#X obj 808 416 t a b b, f 19;
#X msg 938 438 0;
#X obj 938 460 s \$0-l;
#X obj 990 460 s \$0-msg;
#X msg 1055 438 -1;
#X obj 1055 460 s \$0-ch;
#X obj 990 416 t a b b, f 19;
#X msg 1120 438 0;
#X obj 1120 460 s \$0-l;
#X obj 1171 460 s \$0-msg;
#X msg 1236 438 -1;
#X obj 1236 460 s \$0-ch;
#X obj 1171 416 t a b b, f 19;
#X msg 1301 438 0;
#X obj 1301 460 s \$0-l;
#X obj 1353 460 s \$0-msg;
#X msg 1418 438 -1;
#X obj 1418 460 s \$0-ch;
#X obj 1353 416 t a b b, f 19;
#X msg 1483 438 0;
#X obj 1483 460 s \$0-l;
#X obj 1534 460 s \$0-msg;
#X msg 1599 438 -1;
#X obj 1599 460 s \$0-ch;
#X obj 1534 416 t a b b, f 19;
#X msg 1664 438 0;
#X obj 1664 460 s \$0-l;
#X obj 627 658 t a b b, f 19;
#X obj 757 702 s \$0-l;
#X msg 757 680 2;
#X obj 808 702 s \$0-msg;
#X obj 873 702 s \$0-chb;
#X obj 808 658 t a b b, f 19;
#X obj 938 702 s \$0-l;
#X msg 938 680 2;
#X obj 990 702 s \$0-msg;
#X obj 1055 702 s \$0-chb;
#X obj 990 658 t a b b, f 19;
#X obj 1120 702 s \$0-l;
#X msg 1120 680 2;
#X obj 1171 702 s \$0-msg;
#X obj 1236 702 s \$0-chb;
#X obj 1171 658 t a b b, f 19;
#X obj 1301 702 s \$0-l;
#X msg 1301 680 2;
#X obj 1353 702 s \$0-msg;
#X obj 1418 702 s \$0-chb;
#X obj 1353 658 t a b b, f 19;
#X obj 1483 702 s \$0-l;
#X obj 1534 702 s \$0-msg;
#X obj 1599 702 s \$0-chb;
#X obj 1534 658 t a b b, f 19;
#X obj 1664 702 s \$0-l;
#X obj 1716 702 s \$0-msg;
#X obj 1781 702 s \$0-chb;
#X obj 1716 658 t a b b, f 19;
#X obj 1846 702 s \$0-l;
#X msg 1846 680 2;
#X msg 1483 680 1;
#X msg 1664 680 1;
#X msg 1534 636 ma;
#X msg 346 306 247;
#X obj 20 306 f;
#X obj 20 328 t f f;
#X obj 52 350 + 1;
#X obj 52 372 %, f 5;
#X obj 84 328 r \$0-l;
#X obj 52 394 t f b f, f 12;
#X obj 92 438 spigot;
#X obj 133 416 == 0;
#X obj 92 482 s \$0-output;
#X obj 20 284 t b b f, f 37;
#X obj 92 460 t b;
#X obj 679 570 + 1;
#X connect 0 0 1 0;
#X connect 1 0 2 0;
#X connect 2 0 7 0;
#X connect 2 1 8 0;
#X connect 2 2 5 0;
#X connect 2 3 3 0;
#X connect 2 4 4 0;
#X connect 2 5 117 0;
#X connect 2 6 6 0;
#X connect 3 0 99 0;
#X connect 4 0 104 0;
#X connect 5 0 94 0;
#X connect 6 0 112 0;
#X connect 7 0 84 0;
#X connect 8 0 89 0;
#X connect 9 0 75 0;
#X connect 10 0 81 0;
#X connect 11 0 69 0;
#X connect 12 0 18 1;
#X connect 13 0 0 0;
#X connect 13 1 12 0;
#X connect 16 0 17 0;
#X connect 18 0 130 0;
#X connect 20 0 18 0;
#X connect 22 0 36 0;
#X connect 24 0 13 0;
#X connect 25 0 128 0;
#X connect 25 1 51 0;
#X connect 26 0 25 0;
#X connect 27 0 28 1;
#X connect 28 0 29 0;
#X connect 29 0 37 0;
#X connect 29 1 37 1;
#X connect 30 0 63 0;
#X connect 31 0 54 0;
#X connect 32 0 57 0;
#X connect 34 0 45 0;
#X connect 35 0 40 1;
#X connect 36 0 39 1;
#X connect 37 0 39 0;
#X connect 37 1 41 0;
#X connect 38 0 39 2;
#X connect 39 0 33 0;
#X connect 40 0 34 0;
#X connect 41 0 31 0;
#X connect 41 1 32 0;
#X connect 41 2 30 0;
#X connect 41 3 11 0;
#X connect 41 4 9 0;
#X connect 41 5 10 0;
#X connect 41 6 23 0;
#X connect 43 0 44 0;
#X connect 46 0 34 1;
#X connect 47 0 50 0;
#X connect 48 0 47 1;
#X connect 49 0 47 0;
#X connect 51 0 118 0;
#X connect 51 1 28 0;
#X connect 52 0 53 0;
#X connect 52 1 40 0;
#X connect 52 2 46 0;
#X connect 54 0 14 0;
#X connect 54 1 16 0;
#X connect 54 2 56 0;
#X connect 56 0 55 0;
#X connect 57 0 42 0;
#X connect 57 1 43 0;
#X connect 57 2 58 0;
#X connect 58 0 59 0;
#X connect 61 0 62 0;
#X connect 63 0 60 0;
#X connect 63 1 61 0;
#X connect 63 2 64 0;
#X connect 64 0 65 0;
#X connect 67 0 68 0;
#X connect 69 0 66 0;
#X connect 69 1 67 0;
#X connect 69 2 70 0;
#X connect 70 0 71 0;
#X connect 73 0 74 0;
#X connect 75 0 72 0;
#X connect 75 1 73 0;
#X connect 75 2 76 0;
#X connect 76 0 77 0;
#X connect 79 0 80 0;
#X connect 81 0 78 0;
#X connect 81 1 79 0;
#X connect 81 2 82 0;
#X connect 82 0 83 0;
#X connect 84 0 15 0;
#X connect 84 1 21 0;
#X connect 84 2 86 0;
#X connect 86 0 85 0;
#X connect 89 0 87 0;
#X connect 89 1 88 0;
#X connect 89 2 91 0;
#X connect 91 0 90 0;
#X connect 94 0 92 0;
#X connect 94 1 93 0;
#X connect 94 2 96 0;
#X connect 96 0 95 0;
#X connect 99 0 97 0;
#X connect 99 1 98 0;
#X connect 99 2 101 0;
#X connect 101 0 100 0;
#X connect 104 0 102 0;
#X connect 104 1 103 0;
#X connect 104 2 115 0;
#X connect 108 0 106 0;
#X connect 108 1 107 0;
#X connect 108 2 116 0;
#X connect 112 0 110 0;
#X connect 112 1 111 0;
#X connect 112 2 114 0;
#X connect 114 0 113 0;
#X connect 115 0 105 0;
#X connect 116 0 109 0;
#X connect 117 0 108 0;
#X connect 118 0 52 0;
#X connect 119 0 120 0;
#X connect 120 1 121 0;
#X connect 121 0 122 0;
#X connect 122 0 124 0;
#X connect 123 0 122 1;
#X connect 124 0 119 1;
#X connect 124 1 125 0;
#X connect 124 2 126 0;
#X connect 125 0 129 0;
#X connect 126 0 125 1;
#X connect 128 0 119 0;
#X connect 128 1 40 0;
#X connect 128 2 46 0;
#X connect 129 0 127 0;
#X connect 130 0 19 0;
