#N canvas 823 381 450 300 10;
#X obj 200 179 dac~;
#X obj 200 61 - 1;
#X obj 200 17 notein;
#X obj 200 83 pack f f f;
#X obj 200 157 *~ 0.1;
#X obj 200 39 poly 5 1;
#X obj 200 105 clone mono-osc~ 5;
#X obj 140 39 print;
#X connect 1 0 3 0;
#X connect 2 0 5 0;
#X connect 2 0 7 0;
#X connect 2 1 5 1;
#X connect 3 0 6 0;
#X connect 4 0 0 0;
#X connect 4 0 0 1;
#X connect 5 0 1 0;
#X connect 5 1 3 1;
#X connect 5 2 3 2;
#X connect 6 0 4 0;
