#N canvas 227 50 1104 749 10;
#X obj 364 718 *~ 0.1;
#X obj 459 564 until;
#X msg 459 542 16;
#X obj 459 520 t b a;
#X obj 459 586 t b b;
#X obj 459 608 counter 0 15;
#X obj 459 630 pack f s;
#X obj 459 434 moses 10;
#X obj 556 454 moses 100;
#X msg 646 476 symbol 0\$1;
#X msg 556 476 symbol 00\$1;
#X msg 459 476 symbol 000\$1;
#X obj 732 500 hsl 128 15 0 2 0 1 empty empty empty -2 -8 0 10 -262144
-1 -1 6350 1;
#X obj 729 564 until;
#X msg 729 542 16;
#X obj 729 586 t b b;
#X obj 729 608 counter 0 15;
#X obj 729 630 pack f f;
#X obj 459 324 loadbang;
#X obj 403 696 / 16256;
#X obj 403 674 bendin;
#X obj 822 608 f;
#X obj 552 608 symbol;
#X obj 459 390 t f f;
#X obj 729 520 t b f f;
#X obj 729 456 loadbang;
#X obj 364 652 clone mono-akwf~ 16;
#X obj 363 740 outlet~;
#X floatatom 459 371 5 101 200 0 - - -, f 5;
#X obj 370 82 inlet note;
#X obj 370 104 s \$0-note;
#X obj 455 82 inlet waveform;
#X obj 455 104 s \$0-waveform;
#X obj 511 390 r \$0-waveform;
#X obj 364 630 r \$0-note;
#X msg 888 520 1024;
#X obj 568 82 inlet wf-stop;
#X obj 568 104 s \$0-wf-stop;
#X obj 795 520 r \$0-wf-stop;
#X obj 491 412 dtov, f 12;
#X obj 775 542 dtov, f 12;
#X msg 929 520 0;
#X msg 963 520 2;
#X msg 459 498 symbol ./AKWF/AKWF_0002/AKWF_\$1.wav;
#X msg 611 390 101;
#X msg 645 390 200;
#X obj 378 524 print;
#X msg 729 478 1;
#X msg 459 346 101;
#X connect 0 0 27 0;
#X connect 1 0 4 0;
#X connect 2 0 1 0;
#X connect 3 0 2 0;
#X connect 3 1 22 1;
#X connect 4 0 5 0;
#X connect 4 1 22 0;
#X connect 5 0 6 0;
#X connect 6 0 26 1;
#X connect 7 0 11 0;
#X connect 7 1 8 0;
#X connect 8 0 10 0;
#X connect 8 1 9 0;
#X connect 9 0 43 0;
#X connect 10 0 43 0;
#X connect 11 0 43 0;
#X connect 12 0 24 0;
#X connect 13 0 15 0;
#X connect 14 0 13 0;
#X connect 15 0 16 0;
#X connect 15 1 21 0;
#X connect 16 0 17 0;
#X connect 17 0 26 2;
#X connect 18 0 48 0;
#X connect 18 0 44 0;
#X connect 18 0 45 0;
#X connect 19 0 0 1;
#X connect 20 0 19 0;
#X connect 21 0 17 1;
#X connect 22 0 6 1;
#X connect 23 0 7 0;
#X connect 23 1 39 0;
#X connect 24 0 14 0;
#X connect 24 1 21 1;
#X connect 24 2 40 0;
#X connect 25 0 35 0;
#X connect 25 0 41 0;
#X connect 25 0 42 0;
#X connect 25 0 47 0;
#X connect 26 0 0 0;
#X connect 28 0 23 0;
#X connect 29 0 30 0;
#X connect 31 0 32 0;
#X connect 33 0 39 1;
#X connect 34 0 26 0;
#X connect 35 0 40 2;
#X connect 36 0 37 0;
#X connect 38 0 40 1;
#X connect 39 0 28 0;
#X connect 40 0 12 0;
#X connect 41 0 40 3;
#X connect 42 0 40 4;
#X connect 43 0 3 0;
#X connect 43 0 46 0;
#X connect 44 0 39 3;
#X connect 45 0 39 4;
#X connect 47 0 12 0;
#X connect 48 0 28 0;
