#N canvas 0 0 832 976 10;
#X obj 33 41 phasor~;
#X obj 212 41 t a b;
#X obj 265 63 \$0;
#X obj 212 85 pack s f;
#X msg 212 107 read -resize \$1 \$2-waveform;
#X obj 212 129 soundfiler;
#X obj 212 151 s \$0-length;
#X obj 212 173 table \$0-waveform 5;
#X obj 33 19 inlet~ input;
#X obj 126 19 inlet phase;
#X obj 319 41 s \$0-start;
#X obj 405 41 s \$0-stop;
#X obj 33 217 *~;
#X obj 51 63 r \$0-length;
#X obj 61 85 r \$0-start;
#X obj 61 107 t b f;
#X obj 51 129 -;
#X obj 61 151 r \$0-stop;
#X obj 61 173 t b f;
#X obj 33 261 +~;
#X obj 51 239 r \$0-start;
#X obj 212 19 inlet waveform;
#X obj 319 19 inlet start;
#X obj 405 19 inlet stop;
#X obj 33 283 tabread4~ \$0-waveform;
#X obj 33 305 outlet~;
#X obj 51 195 +;
#X connect 0 0 12 0;
#X connect 1 0 3 0;
#X connect 1 1 2 0;
#X connect 2 0 3 1;
#X connect 3 0 4 0;
#X connect 4 0 5 0;
#X connect 5 0 6 0;
#X connect 8 0 0 0;
#X connect 9 0 0 1;
#X connect 12 0 19 0;
#X connect 13 0 16 0;
#X connect 14 0 15 0;
#X connect 15 0 16 0;
#X connect 15 1 16 1;
#X connect 16 0 26 0;
#X connect 17 0 18 0;
#X connect 18 0 26 0;
#X connect 18 1 26 1;
#X connect 19 0 24 0;
#X connect 20 0 19 1;
#X connect 21 0 1 0;
#X connect 22 0 10 0;
#X connect 23 0 11 0;
#X connect 24 0 25 0;
#X connect 26 0 12 1;
