#N canvas 722 441 854 481 10;
#X obj 36 3 ctlin;
#X obj 36 25 swap;
#X obj 36 47 pack f f;
#X obj 36 69 route 16 17 18 19 20 21 22 23;
#X obj 36 135 mtod;
#X obj 36 157 outlet;
#X obj 117 135 mtod;
#X obj 117 157 outlet;
#X obj 198 135 mtod;
#X obj 198 157 outlet;
#X obj 279 135 mtod;
#X obj 279 157 outlet;
#X obj 360 135 mtod;
#X obj 360 157 outlet;
#X obj 441 135 mtod;
#X obj 441 157 outlet;
#X obj 522 135 mtod;
#X obj 522 157 outlet;
#X obj 603 135 mtod;
#X obj 603 157 outlet;
#X connect 0 0 1 0;
#X connect 0 1 1 1;
#X connect 1 0 2 0;
#X connect 1 1 2 1;
#X connect 2 0 3 0;
#X connect 3 0 4 0;
#X connect 3 1 6 0;
#X connect 3 2 8 0;
#X connect 3 3 10 0;
#X connect 3 4 12 0;
#X connect 3 5 14 0;
#X connect 3 6 16 0;
#X connect 3 7 18 0;
#X connect 4 0 5 0;
#X connect 6 0 7 0;
#X connect 8 0 9 0;
#X connect 10 0 11 0;
#X connect 12 0 13 0;
#X connect 14 0 15 0;
#X connect 16 0 17 0;
